<?xml version="1.0" encoding="UTF-8" standalone="no"?>
<svg
   xmlns:dc="http://purl.org/dc/elements/1.1/"
   xmlns:cc="http://creativecommons.org/ns#"
   xmlns:rdf="http://www.w3.org/1999/02/22-rdf-syntax-ns#"
   xmlns:svg="http://www.w3.org/2000/svg"
   xmlns="http://www.w3.org/2000/svg"
   xmlns:sodipodi="http://sodipodi.sourceforge.net/DTD/sodipodi-0.dtd"
   xmlns:inkscape="http://www.inkscape.org/namespaces/inkscape"
   version="1.1"
   x="0px"
   y="0px"
   viewBox="22 119.8 520.13202 286.22501"
   xml:space="preserve"
   id="svg839"
   sodipodi:docname="ebl-mask-icon.svg"
   width="520.13202"
   height="286.22501"
   inkscape:version="1.0.1 (c497b03c, 2020-09-10)"><metadata
     id="metadata845"><rdf:RDF><cc:Work
         rdf:about=""><dc:format>image/svg+xml</dc:format><dc:type
           rdf:resource="http://purl.org/dc/dcmitype/StillImage" /><dc:title></dc:title></cc:Work></rdf:RDF></metadata><defs
     id="defs843" /><sodipodi:namedview
     pagecolor="#ffffff"
     bordercolor="#666666"
     borderopacity="1"
     objecttolerance="10"
     gridtolerance="10"
     guidetolerance="10"
     inkscape:pageopacity="0"
     inkscape:pageshadow="2"
     inkscape:window-width="1526"
     inkscape:window-height="856"
     id="namedview841"
     showgrid="false"
     inkscape:zoom="1.5213675"
     inkscape:cx="271.74775"
     inkscape:cy="170.89853"
     inkscape:window-x="33"
     inkscape:window-y="25"
     inkscape:window-maximized="0"
     inkscape:current-layer="svg839"
     fit-margin-top="0"
     fit-margin-left="0"
     fit-margin-right="0"
     fit-margin-bottom="0" /><path
     d="m 538.23202,384.73051 h -51.5 c 26,-12.8 43.9,-39.5 43.9,-70.4 0,-43.2 -35.2,-78.4 -78.4,-78.4 -8.7,0 -17,1.4 -24.9,4.1 l -14,-39.5 32.7,-24.7 18.9,8.7 c 0.5,0.3 1.1,0.4 1.7,0.4 1.5,0 3,-0.9 3.6,-2.3 0.9,-2 0.1,-4.4 -1.9,-5.3 l -20.7,-9.6 c -0.1,-0.1 -0.2,-0.1 -0.3,-0.1 l -21.1,-9.8 c -2,-0.9 -4.4,-0.1 -5.3,1.9 -0.9,2 -0.1,4.4 1.9,5.3 l 15,6.9 -30.5,23 -74.9,-2.5 -74.8,-2.6 c 1.6,-5 3.1,-9.8 4.2,-14.5 2.6,-10.2 4.8,-22.5 3.6,-32 l 17,8.6 c 0.6,0.3 1.2,0.4 1.8,0.4 1.5,0 2.9,-0.8 3.6,-2.2 1,-2 0.2,-4.4 -1.8,-5.4 l -25.8,-13 v 0 l -22.7,-11.5 c -2,-1 -4.4,-0.2 -5.4,1.8 -1,2 -0.2,4.4 1.8,5.4 l 21.8,11 c 2.6,4 3.4,15.1 -1.6,34.9 -6.2,24.6 -19.9,56.6 -37.6,83.9 -14,-13.2 -33,-21.4 -53.7,-21.4 -43.3,0 -78.4,35.2 -78.4,78.4 0,30.9 17.9,57.6 44,70.4 -107.915268,22.58086 276.04698,8.1709 323.7,8 v 0 0 h 86 c 2.2,0 4,-1.8 4,-4 0,-2.2 -1.7,-3.9 -3.9,-3.9 z m -86,-140.7 c 38.8,0 70.4,31.6 70.4,70.4 0,38.8 -31.6,70.3 -70.4,70.4 h -0.1 c -38.2,0 -69.4,-30.7 -70.3,-68.7 l 41.2,1.4 c 1.5,13.2 12.8,23.5 26.5,23.5 14.7,0 26.6,-11.9 26.6,-26.6 0,-14.7 -12,-26.6 -26.6,-26.6 -1.7,0 -3.4,0.2 -5,0.5 l -14.4,-40.6 c 6.9,-2.4 14.3,-3.7 22.1,-3.7 z m 1,69 -6.1,-17.1 c 0.8,-0.1 1.5,-0.2 2.3,-0.2 10.3,0 18.6,8.4 18.6,18.6 0,10.3 -8.4,18.6 -18.6,18.6 -9.1,0 -16.7,-6.6 -18.3,-15.3 l 18.2,0.6 h 0.1 c 1.3,0 2.5,-0.6 3.2,-1.6 0.8,-0.9 1,-2.3 0.6,-3.6 z m -9.5,-2.8 -12.3,-0.4 c 0.8,-3.2 2.5,-6.2 4.9,-8.5 1,-1 2.1,-1.9 3.3,-2.6 z m -13.1,-14.7 c -3.9,3.9 -6.4,8.7 -7.3,13.9 l -41.2,-1.4 c 2.3,-25.5 18.2,-47.1 40.5,-57.5 l 14.3,40.3 c -2.3,1.3 -4.4,2.9 -6.3,4.7 z m -56.6,12.3 -67.7,-2.3 100.6,-99 13,36.6 c -25.3,11.4 -43.4,35.8 -45.9,64.7 z m -41.9,-107.2 67,2.3 -31.9,31.3 -68.7,67.7 -36.8,-103.7 z m -239.8,113.8 c 0,-38.8 31.6,-70.4 70.4,-70.4 19.1,0 36.5,7.7 49.2,20.1 -8.9,12.8 -18.7,24.3 -29,33 -4.9,-5.7 -12.1,-9.3 -20.2,-9.3 -14.7,0 -26.6,11.9 -26.6,26.6 0,14.7 12,26.6 26.6,26.6 14.6,0 26.6,-11.9 26.6,-26.6 0,-3.7 -0.8,-7.3 -2.2,-10.5 11.6,-9.7 21.8,-22 30.2,-33.8 9.8,12.1 15.7,27.5 15.7,44.3 0,38.8 -31.6,70.4 -70.4,70.4 -38.7,-0.1 -70.3,-31.6 -70.3,-70.4 z m 66.7,1.4 c 0.6,1.6 2.1,2.5 3.7,2.5 0.5,0 1,-0.1 1.5,-0.3 5.7,-2.2 11.1,-5.4 16.4,-9.1 0.5,1.7 0.8,3.5 0.8,5.3 0,10.3 -8.4,18.6 -18.6,18.6 -10.2,0 -18.6,-8.4 -18.6,-18.6 0,-10.3 8.4,-18.6 18.6,-18.6 5.5,0 10.5,2.4 13.9,6.3 -5.1,3.6 -10.2,6.6 -15.4,8.6 -2.1,1 -3.1,3.3 -2.3,5.3 z m 38.2,68.9 c 26,-12.8 43.9,-39.5 43.9,-70.4 0,-19.5 -7.2,-37.4 -19.1,-51.1 1.1,-1.7 2.2,-3.4 3.2,-5 11.3,-18 21.4,-38.4 28.7,-58 l 39.1,110.2 v 0.1 0.1 c 0,0 0,0.1 0.1,0.1 0,0.1 0.1,0.2 0.1,0.3 0,0.1 0.1,0.1 0.1,0.2 0.1,0.1 0.1,0.2 0.2,0.3 0,0.1 0.1,0.1 0.1,0.2 0.1,0.1 0.1,0.2 0.2,0.2 l 0.1,0.1 c 0.1,0.1 0.2,0.2 0.3,0.2 l 0.1,0.1 c 0.1,0.1 0.3,0.2 0.5,0.3 h 0.1 c 0.1,0.1 0.3,0.1 0.4,0.2 0.1,0 0.1,0 0.2,0.1 0.1,0 0.2,0.1 0.3,0.1 h 0.1 c 0.2,0 0.5,0.1 0.7,0.1 l 77,2.6 c 0.5,30.3 18.3,56.4 43.9,69 z"
     id="path833"
     sodipodi:nodetypes="scssccccscccccsccccccccssccccsccccssccccssssscsccsssccsccsssccsccccccccccccccccccccccccssccssssccscscsccsssscccsscccccccsccccscsccccssccccs"
     style="fill:#4b5320;fill-opacity:1"
     inkscape:export-xdpi="21.46563"
     inkscape:export-ydpi="21.46563" /><path
     d="m 475.8,393.43843 h -51.5 c 26,-12.8 43.9,-39.5 43.9,-70.4 0,-43.2 -35.2,-78.4 -78.4,-78.4 -8.7,0 -17,1.4 -24.9,4.1 l -14,-39.5 32.7,-24.7 18.9,8.7 c 0.5,0.3 1.1,0.4 1.7,0.4 1.5,0 3,-0.9 3.6,-2.3 0.9,-2 0.1,-4.4 -1.9,-5.3 l -20.7,-9.6 c -0.1,-0.1 -0.2,-0.1 -0.3,-0.1 l -21.1,-9.8 c -2,-0.9 -4.4,-0.1 -5.3,1.9 -0.9,2 -0.1,4.4 1.9,5.3 l 15,6.9 -30.5,23 -74.9,-2.5 -74.8,-2.6 c 1.6,-5 3.1,-9.8 4.2,-14.5 2.6,-10.2 4.8,-22.5 3.6,-32 l 17,8.6 c 0.6,0.3 1.2,0.4 1.8,0.4 1.5,0 2.9,-0.8 3.6,-2.2 1,-2 0.2,-4.4 -1.8,-5.4 l -25.8,-13 v 0 l -22.7,-11.5 c -2,-1 -4.4,-0.2 -5.4,1.8 -1,2 -0.2,4.4 1.8,5.4 l 21.8,11 c 2.6,4 3.4,15.1 -1.6,34.9 -6.2,24.6 -19.9,56.6 -37.6,83.9 -14,-13.2 -33,-21.4 -53.7,-21.4 -43.3,0 -78.4,35.2 -78.4,78.4 0,30.9 17.9,57.6 44,70.4 -107.91527,22.58086 276.04698,8.1709 323.7,8 v 0 0 h 86 c 2.2,0 4,-1.8 4,-4 0,-2.2 -1.7,-3.9 -3.9,-3.9 z m -86,-140.7 c 38.8,0 70.4,31.6 70.4,70.4 0,38.8 -31.6,70.3 -70.4,70.4 h -0.1 c -38.2,0 -69.4,-30.7 -70.3,-68.7 l 41.2,1.4 c 1.5,13.2 12.8,23.5 26.5,23.5 14.7,0 26.6,-11.9 26.6,-26.6 0,-14.7 -12,-26.6 -26.6,-26.6 -1.7,0 -3.4,0.2 -5,0.5 l -14.4,-40.6 c 6.9,-2.4 14.3,-3.7 22.1,-3.7 z m 1,69 -6.1,-17.1 c 0.8,-0.1 1.5,-0.2 2.3,-0.2 10.3,0 18.6,8.4 18.6,18.6 0,10.3 -8.4,18.6 -18.6,18.6 -9.1,0 -16.7,-6.6 -18.3,-15.3 l 18.2,0.6 h 0.1 c 1.3,0 2.5,-0.6 3.2,-1.6 0.8,-0.9 1,-2.3 0.6,-3.6 z m -9.5,-2.8 -12.3,-0.4 c 0.8,-3.2 2.5,-6.2 4.9,-8.5 1,-1 2.1,-1.9 3.3,-2.6 z m -13.1,-14.7 c -3.9,3.9 -6.4,8.7 -7.3,13.9 l -41.2,-1.4 c 2.3,-25.5 18.2,-47.1 40.5,-57.5 l 14.3,40.3 c -2.3,1.3 -4.4,2.9 -6.3,4.7 z m -56.6,12.3 -67.7,-2.3 100.6,-99 13,36.6 c -25.3,11.4 -43.4,35.8 -45.9,64.7 z m -41.9,-107.2 67,2.3 -31.9,31.3 -68.7,67.7 -36.8,-103.7 z m -239.8,113.8 c 0,-38.8 31.6,-70.4 70.4,-70.4 19.1,0 36.5,7.7 49.2,20.1 -8.9,12.8 -18.7,24.3 -29,33 -4.9,-5.7 -12.1,-9.3 -20.2,-9.3 -14.7,0 -26.6,11.9 -26.6,26.6 0,14.7 12,26.6 26.6,26.6 14.6,0 26.6,-11.9 26.6,-26.6 0,-3.7 -0.8,-7.3 -2.2,-10.5 11.6,-9.7 21.8,-22 30.2,-33.8 9.8,12.1 15.7,27.5 15.7,44.3 0,38.8 -31.6,70.4 -70.4,70.4 -38.7,-0.1 -70.3,-31.6 -70.3,-70.4 z m 66.7,1.4 c 0.6,1.6 2.1,2.5 3.7,2.5 0.5,0 1,-0.1 1.5,-0.3 5.7,-2.2 11.1,-5.4 16.4,-9.1 0.5,1.7 0.8,3.5 0.8,5.3 0,10.3 -8.4,18.6 -18.6,18.6 -10.2,0 -18.6,-8.4 -18.6,-18.6 0,-10.3 8.4,-18.6 18.6,-18.6 5.5,0 10.5,2.4 13.9,6.3 -5.1,3.6 -10.2,6.6 -15.4,8.6 -2.1,1 -3.1,3.3 -2.3,5.3 z m 38.2,68.9 c 26,-12.8 43.9,-39.5 43.9,-70.4 0,-19.5 -7.2,-37.4 -19.1,-51.1 1.1,-1.7 2.2,-3.4 3.2,-5 11.3,-18 21.4,-38.4 28.7,-58 l 39.1,110.2 v 0.1 0.1 c 0,0 0,0.1 0.1,0.1 0,0.1 0.1,0.2 0.1,0.3 0,0.1 0.1,0.1 0.1,0.2 0.1,0.1 0.1,0.2 0.2,0.3 0,0.1 0.1,0.1 0.1,0.2 0.1,0.1 0.1,0.2 0.2,0.2 l 0.1,0.1 c 0.1,0.1 0.2,0.2 0.3,0.2 l 0.1,0.1 c 0.1,0.1 0.3,0.2 0.5,0.3 h 0.1 c 0.1,0.1 0.3,0.1 0.4,0.2 0.1,0 0.1,0 0.2,0.1 0.1,0 0.2,0.1 0.3,0.1 h 0.1 c 0.2,0 0.5,0.1 0.7,0.1 l 77,2.6 c 0.5,30.3 18.3,56.4 43.9,69 z"
     id="path833-6"
     sodipodi:nodetypes="scssccccscccccsccccccccssccccsccccssccccssssscsccsssccsccsssccsccccccccccccccccccccccccssccssssccscscsccsssscccsscccccccsccccscsccccssccccs"
     style="fill:#ec5800;fill-opacity:1"
     inkscape:export-xdpi="21.46563"
     inkscape:export-ydpi="21.46563" /></svg>
